# xmcd CD database file
#
# Track frame offsets:
#	150
#	15902
#	36285
#	54825
#	75317
#	89887
#	106265
#	125222
#	141492
#	159620
#	176125
#
# Disc length: 2631 seconds
#
# Revision: 4
# Processed by: cddbd v1.5PL3 Copyright (c) Steve Scherf et al.
# Submitted via: CDex 1.51
#
DISCID=900a450b
DTITLE=happy - Happy☆LESSON 「Melody」
DYEAR=2004
DGENRE=General Soundtrack
TTITLE0=Sleepin' JohnnyFish/テレスコープ
TTITLE1=一文字むつき（浅野るり）/Beautiful Day
TTITLE2=二ノ舞きさらぎ（木村亜希子）/Change Mind
TTITLE3=三世院やよい（井上喜久子）/愛の歌
TTITLE4=四天王うづき（こやまきみこ）/キラキラあらかると
TTITLE5=五箇条さつき（笹島かほる）/直球ヴィーナス（飛び出せよ青春編）
TTITLE6=六祭みなづき（水樹奈々）/Kiss Me Kiss Me
TTITLE7=七転ふみつき（島涼香）/歩き出そう
TTITLE8=八桜はづき（園崎未恵）/ラッキー７７７
TTITLE9=十隠カンナ（中川亜紀子）/夢の都Tokyo Life
TTITLE10=一文字むつき、二ノ舞きさらぎ、三世院やよい、四天王うづき、五箇条さつき/Melody
EXTD=YEAR: 2004
EXTT0=
EXTT1=
EXTT2=
EXTT3=
EXTT4=
EXTT5=
EXTT6=
EXTT7=
EXTT8=
EXTT9=
EXTT10=
PLAYORDER=
